<?xml version="1.0" standalone="no"?><!DOCTYPE svg PUBLIC "-//W3C//DTD SVG 1.1//EN" "http://www.w3.org/Graphics/SVG/1.1/DTD/svg11.dtd"><svg t="1771604263366" class="icon" viewBox="0 0 1024 1024" version="1.1" xmlns="http://www.w3.org/2000/svg" p-id="12656" xmlns:xlink="http://www.w3.org/1999/xlink" width="256" height="256"><path d="M738.56 406.656c-2.336 0.128-2.912-0.96-3.2-3.2-0.224-2.368-0.096-5.184-1.28-7.04-2.24-3.52-1.6-7.68-3.52-11.328a20.16 20.16 0 0 1-2.24-6.208c-0.096-1.28 0.224-3.072-0.672-3.776-2.048-1.472-1.28-3.84-2.56-5.76-1.408-2.048-1.472-5.056-2.56-7.552-1.088-2.624-2.432-5.44-2.688-8.32-0.128-1.408-1.728-1.472-1.664-2.88 0.128-2.368-1.6-4.288-2.176-6.528-0.768-3.008-2.432-5.888-3.584-8.832a68.224 68.224 0 0 0-2.944-6.912c-1.6-3.2-2.944-6.464-4.8-9.6-1.792-2.752-2.304-6.336-4.224-9.344a52.416 52.416 0 0 1-4.096-7.872c-1.856-4.352-4.544-8.128-6.656-12.288a168.832 168.832 0 0 0-6.592-12.096c-2.24-3.776-4.224-7.744-6.848-11.392-1.024-1.472-2.688-2.944-2.944-4.608-0.384-2.432-2.24-4.16-3.392-5.568-1.6-1.92-1.664-5.312-4.8-6.016 0 0-0.128-0.32-0.064-0.448 0.256-2.56-3.328-3.264-3.008-5.888-2.752-0.96-1.984-4.992-5.12-5.76 0 0-0.128-0.256-0.064-0.384 0.256-2.56-2.24-3.968-3.328-5.632a43.2 43.2 0 0 0-4.8-6.016c-0.832-0.896-2.24-1.664-2.56-2.752-1.088-3.84-4.736-5.76-6.592-9.088-1.728-3.072-4.736-5.12-7.104-7.68a24.64 24.64 0 0 0-8.32-6.4c-3.008-1.152-5.376-3.584-8.96-3.776-3.712-0.192-7.232-2.368-11.136-2.24 0-0.832-0.256-1.472-1.28-1.472H214.88c-1.024 0-1.28 0.64-1.28 1.472-2.56-0.192-3.968 1.92-4.8 3.456-1.92 3.392 0.832 9.6 4.544 11.072 1.536 0.576 2.368 1.664 3.456 2.688 0.576 0.576 1.088 1.472 1.92 1.344 1.536-0.128 2.24 0.96 2.688 1.856 0.576 1.216 1.664 1.664 2.56 2.112 2.72 1.408 5.216 3.2 7.424 5.312 3.328 3.072 7.04 5.568 10.624 8.192 3.008 2.176 5.44 5.056 8.704 6.848 2.496 1.28 3.84 4.16 6.208 5.312 3.328 1.664 5.184 4.864 8.384 6.528 1.984 1.024 3.52 2.688 4.928 4.352 1.28 1.472 3.584 1.536 4.608 3.008 3.008 4.48 8.128 6.528 11.648 10.56 3.456 3.904 8.32 6.272 11.904 10.368 4.224 4.928 9.984 8.448 14.592 13.056 3.2 3.2 6.464 6.208 9.728 9.28 2.56 2.368 5.12 4.736 7.552 7.232 1.792 1.792 4.096 3.2 5.76 4.8 4.16 4.032 8.96 7.616 11.84 12.8l0.64 0.768c3.2 3.008 6.4 6.016 9.472 9.088 3.84 3.84 7.552 7.936 11.712 11.584 1.696 1.28 3.136 2.88 4.224 4.736 0.832 1.92 2.304 3.2 3.584 4.416 3.52 3.456 7.36 6.656 9.856 11.008 1.024 1.792 3.136 2.432 4.224 4.16 1.408 2.176 3.52 3.712 4.928 6.016 2.048 3.392 5.568 5.76 7.936 9.28 2.304 3.456 5.376 6.784 8.32 9.728 3.328 3.328 5.632 7.424 9.152 10.432 1.856 1.536 2.048 4.48 4.416 5.44 1.216 0.512 1.6 1.536 1.92 2.368 1.28 2.752 3.648 4.672 5.12 7.232 1.472 2.56 3.968 4.16 5.632 6.656 3.072 4.736 6.592 9.28 10.432 13.44 1.216 1.408 1.088 3.584 2.88 4.288 2.688 1.088 3.136 3.968 4.544 5.888 1.792 2.496 4.224 4.608 5.568 7.36 1.408 2.944 3.84 5.12 5.376 7.808 1.408 2.432 3.2 4.608 4.672 7.04 1.088 1.856 2.112 3.968 3.712 5.568 1.728 1.728 2.24 4.352 4.224 5.952 1.792 1.472 2.176 3.84 3.84 5.504 1.728 1.92 2.432 4.736 4.352 6.592 1.664 1.6 2.496 3.776 3.648 5.632 0.832 1.28 2.56 2.048 2.752 3.776 0.192 1.92 1.664 3.072 2.624 4.48 1.472 2.176 3.392 4.352 4.224 6.4 1.536 3.84 4.16 6.784 6.016 10.24 2.176 3.84 4.864 7.68 7.04 11.648 1.664 2.88 3.328 5.76 5.12 8.448 0.768 1.344 0.64 3.136 2.112 4.16 1.792 1.28 2.176 3.456 3.2 5.248 0.896 1.6 1.536 3.52 2.816 4.608 1.024 0.896 1.024 1.728 1.216 2.752 1.536 0.64 2.304-0.576 3.2-1.408l7.168-7.104 14.784-14.592c4.224-4.16 8.128-8.576 12.48-12.608 7.68-7.04 14.72-14.592 22.4-21.696 4.992-4.672 9.472-9.792 14.976-13.952 4.8-3.712 8.832-8.32 13.184-12.608l9.664-9.6c3.328-3.328 7.68-5.504 10.752-9.088a2.656 2.656 0 0 1 0.96-0.832c3.2-1.28 5.44-3.904 8.128-5.888 3.136-2.24 6.272-4.48 9.344-6.848 1.536-1.216 3.52-1.792 4.864-3.136 3.84-3.84 8.96-5.568 13.44-8.256 4.736-2.816 9.6-5.568 14.592-7.936 3.52-1.664 6.656-4.352 10.496-5.12 4.416-0.896 7.68-3.904 11.84-5.184 1.28-0.384 2.88-0.512 4.032-1.408 2.432-1.92 5.696-1.92 8.448-3.2 1.28-0.64 2.688-1.472 4.16-1.664 3.328-0.448 6.272-1.984 9.472-2.816 0.896-0.192 1.6-0.704 0.832-1.792" fill="#00D6B9" p-id="12657"></path><path d="M830.72 641.152c-0.96-0.64-1.504 0.192-2.08 0.768-1.728 1.536-2.944 3.584-4.416 5.376l-7.36 8.576c-5.056 5.568-10.496 10.88-16 15.872-4.288 3.904-9.088 7.232-13.696 10.752-1.728 1.28-3.456 2.688-5.248 3.84-1.92 1.344-3.648 3.136-5.76 4.032-4.032 1.728-7.616 4.224-11.328 6.4-6.528 3.584-13.28 6.72-20.224 9.408-3.904 1.6-7.744 3.328-11.776 4.608-3.2 1.024-6.336 2.368-9.6 3.2-1.088 0.256-2.24 0.128-3.264 0.512-3.2 1.216-6.592 1.92-9.92 2.752-2.88 0.768-6.016 0.128-8.512 1.28-3.84 1.792-8.192 0.128-11.776 2.56-5.568-0.064-11.136 0.576-16.704 1.024-9.856 0.768-19.712-0.64-29.568-0.896-4.48-0.128-8.704-2.368-13.248-1.728a0.96 0.96 0 0 1-0.704-0.256c-1.472-1.152-3.2-1.088-4.864-1.088-3.456 0-6.784-0.768-10.048-1.408-3.2-0.64-6.464-1.856-9.6-2.944-1.856-0.64-3.84-0.256-5.504-1.088a28.64 28.64 0 0 0-7.68-2.432c-6.144-1.28-11.84-3.84-18.048-4.864-4.096-0.704-7.68-3.008-11.776-3.84-2.88-0.64-5.696-1.664-8.448-2.56-3.52-1.152-7.04-2.368-10.624-3.264-5.696-1.536-10.944-3.968-16.512-5.76-6.656-2.176-13.12-4.8-19.776-7.04-3.904-1.28-7.424-3.648-11.648-4.288a14.592 14.592 0 0 1-5.12-1.92c-3.136-1.792-6.656-2.432-9.856-3.968-2.688-1.28-5.696-1.92-8.32-3.2-4.352-2.24-9.408-2.944-13.376-6.08a1.664 1.664 0 0 0-0.96-0.256 25.248 25.248 0 0 1-8.832-3.2c-6.08-2.944-12.608-4.928-18.56-8.192-4.736-2.624-9.984-4.096-14.72-6.656-1.088-0.256-2.048-0.064-3.2-0.64-1.984-0.96-3.84-2.56-5.888-3.072-3.904-1.088-6.848-3.904-10.688-5.056-2.176-0.64-3.84-2.56-5.888-3.072-2.56-0.64-4.672-1.92-6.72-3.072-3.392-1.92-7.04-3.2-10.432-5.312-1.856-1.152-4.288-1.536-5.888-2.88-2.432-2.048-6.208-1.92-7.872-4.992-4.096-0.32-6.848-3.456-10.368-4.928-4.16-1.728-7.936-4.352-11.904-6.592-1.664-0.96-3.2-2.688-4.8-3.008-4.352-0.896-7.296-3.968-10.88-5.888a124.224 124.224 0 0 1-12.16-7.296c-0.64-0.384-1.6-0.32-2.048-0.832-2.56-2.88-6.208-4.352-9.344-6.272a421.024 421.024 0 0 1-9.28-5.632c-3.776-2.368-7.68-4.736-11.264-7.296-2.368-1.728-5.376-2.752-7.424-4.736-1.536-1.408-3.392-1.92-4.928-3.2-2.816-2.304-6.08-4.16-9.152-6.272-1.408-0.96-3.264-1.856-4.224-2.88-1.856-2.048-4.352-3.072-6.336-4.736-2.944-2.496-6.656-4.224-9.6-6.848-1.728-1.536-4.288-1.792-5.568-3.968-0.448-0.832-1.28-1.408-2.432-1.728-1.92-0.512-3.264-2.112-4.864-3.2-2.368-1.6-4.48-3.776-6.912-5.44-2.944-1.984-5.504-4.608-8.512-6.4-3.264-1.984-5.568-5.056-8.832-6.912-1.984-1.216-3.2-3.456-5.12-4.352-3.456-1.536-5.504-4.544-8.64-6.4-2.432-1.536-4.096-4.416-6.656-5.76-3.008-1.6-4.8-4.416-7.488-6.272-0.768-0.576-1.664-0.64-2.368-1.536-1.728-2.112-4.096-3.648-6.08-5.504-2.112-1.92-4.736-3.2-6.656-5.504-1.536-1.664-3.2-3.904-5.12-4.672-2.944-1.088-4.224-3.712-6.528-5.376-2.88-2.048-4.992-4.992-7.808-7.232-1.792-1.408-3.84-2.56-5.248-4.352-2.112-2.688-4.8-4.928-7.232-7.232-3.2-3.136-6.272-6.4-9.6-9.408-2.56-2.304-4.928-4.864-7.552-7.168-2.432-2.176-4.608-4.608-7.04-6.784-3.2-2.944-6.144-6.272-9.216-9.408-3.008-3.2-6.272-6.144-9.216-9.408-2.56-2.88-5.12-6.4-10.112-5.312-2.432 0.512-3.584 2.048-4.48 4.032-2.496 0.256-1.472 2.176-1.472 3.264v362.432c0 1.472 0.128 2.88 0.064 4.288 0 1.088 0.384 1.6 1.408 1.664-0.64 3.328 1.6 6.016 2.112 9.088 0.32 2.176 1.728 4.032 2.56 6.08 1.216 2.816 3.584 5.184 5.248 7.872a21.824 21.824 0 0 0 5.632 5.824c2.304 1.664 4.672 3.456 7.168 4.928 2.944 1.664 5.76 3.776 8.512 5.696 0.832 0.512 1.792 0.64 2.688 1.472 2.56 2.304 5.824 4.032 8.96 5.632 2.112 1.088 4.096 2.56 6.4 3.52 5.12 2.112 9.472 5.952 14.72 8 2.944 1.088 5.184 3.2 8.192 4.096 0.704 0.256 1.536 0.32 2.112 0.704 4.224 2.944 9.024 4.608 13.568 6.912 0.96 0.512 2.176 0.512 2.944 1.152 2.432 1.92 5.28 3.2 8.32 3.712 0.512 0.128 1.024 0.192 1.6 0.64 1.28 0.96 2.88 1.664 4.352 2.496 1.664 0.96 3.84 0.384 5.376 2.048 0.576 0.64 1.92 1.472 3.008 1.664 4.48 0.832 8.64 2.944 12.8 4.608 1.28 0.512 2.944 0 3.84 0.96 1.664 1.728 4.032 1.664 5.952 2.56 2.816 1.216 5.76 2.176 8.896 2.944 1.344 0.32 3.2 0.064 4.032 0.96 1.6 1.792 4.032 1.92 5.76 2.368 4.608 1.088 9.088 2.56 13.568 4.096 3.584 1.28 7.616 1.536 11.392 2.688 3.2 0.896 6.4 1.92 9.6 2.496 1.472 0.256 3.648-0.32 4.48 0.448 2.432 2.432 5.76 1.024 8.512 2.368 2.688 1.28 6.4 1.792 9.856 1.536 0.64-0.064 1.6-0.192 1.92 0.128 2.56 2.56 6.528 0 8.96 2.624 5.76 0.512 11.52 0.768 17.152 2.432 3.648 1.088 7.68 0.512 11.52 1.408 4.672 1.088 9.728 0.768 14.592 1.28 3.2 0.256 6.336 0.128 9.472 0.192 0 1.024 0.576 1.408 1.6 1.344h69.12c1.024 0 1.6-0.32 1.6-1.344 7.68 0.384 15.232-1.408 22.848-1.152h4.224c1.024 0.064 1.6-0.32 1.536-1.408a78.72 78.72 0 0 0 10.24-1.28c5.376-1.088 11.008-0.832 16.384-2.56 2.688-0.896 5.76-0.768 8.64-1.472 3.328-0.768 6.848-1.664 10.496-1.408 0.384 0 1.024 0 1.216-0.192 1.792-2.368 4.8-1.28 7.168-2.368a18.464 18.464 0 0 1 8.32-1.472c0.384 0 0.896 0 1.28-0.192a20.448 20.448 0 0 1 8.192-2.624c3.872-0.576 7.68-1.568 11.328-2.944a49.92 49.92 0 0 1 8.384-2.24c0.64-0.128 1.344-0.128 1.664-0.512 1.6-1.664 3.968-1.728 5.76-2.24 3.712-0.96 7.232-2.368 10.88-3.456 1.216-0.32 2.624 0.064 3.648-0.64a22.528 22.528 0 0 1 9.472-3.84 2.976 2.976 0 0 0 1.6-0.512c1.664-1.024 3.2-2.24 5.312-2.496 2.944-0.32 5.76-1.792 8.32-3.072 2.176-1.088 4.608-1.92 6.848-3.072 1.728-0.896 3.584-1.984 5.696-2.368 3.008-0.512 4.992-3.136 8.064-3.776a22.72 22.72 0 0 0 6.528-2.752c3.264-1.856 6.656-3.392 9.984-4.992 2.112-1.088 4.544-1.984 6.272-3.264 2.624-1.792 5.408-3.36 8.32-4.608 3.712-1.664 6.976-4.032 10.688-5.632 3.2-1.472 6.08-3.84 9.28-5.632 1.6-0.896 3.072-2.304 4.608-3.072a63.04 63.04 0 0 0 5.12-3.008c2.176-1.472 4.736-2.368 6.592-4.224 1.664-1.664 3.904-2.24 5.632-3.776 2.048-1.728 4.8-2.56 6.72-4.48 0.64-0.64 1.024-1.28 1.92-1.28a3.072 3.072 0 0 0 2.368-1.6 5.504 5.504 0 0 1 2.56-2.176c3.008-1.088 4.608-3.968 7.424-5.376 1.728-0.832 3.2-2.432 4.8-3.584 2.752-1.92 5.376-3.968 8-6.016 1.472-1.152 2.752-3.136 4.224-3.584 3.2-1.024 4.16-4.48 7.168-5.76a9.984 9.984 0 0 0 2.752-2.048c2.304-2.56 5.12-4.608 7.68-7.104 1.6-1.664 3.776-2.432 5.312-4.224 1.824-2.208 3.84-4.256 6.016-6.08 1.92-1.536 3.712-3.328 5.376-5.12l9.6-9.536c3.2-3.072 6.208-6.208 9.408-9.216 1.92-1.824 3.616-3.84 5.12-6.016a32.32 32.32 0 0 1 5.76-6.08c1.664-1.344 2.176-3.392 3.712-4.8a27.136 27.136 0 0 0 5.824-6.592c1.728-2.944 4.672-4.8 6.272-7.808 1.152-2.176 3.392-3.584 4.736-5.76 1.344-2.304 3.2-4.352 4.928-6.4 1.92-2.304 4.096-4.736 5.376-7.296 1.344-2.752 3.776-4.48 5.12-7.232 1.408-2.528 3.04-4.896 4.928-7.104 1.28-1.6 2.048-3.392 3.136-5.056 1.664-2.56 3.456-5.056 5.248-7.552 0.704-1.088 0.832-2.24 1.792-3.328 1.728-1.792 3.648-3.968 3.2-6.912" fill="#3370FF" p-id="12658"></path><path d="M958.72 423.232c-0.352-0.448-0.736-0.448-1.28-0.576-1.376-0.448-2.976-0.768-4.256-1.536a26.624 26.624 0 0 0-4.48-2.56c-2.368-0.96-5.12-1.28-7.104-2.688-2.752-2.112-6.208-2.048-9.152-3.584a22.784 22.784 0 0 0-6.656-2.368c-1.792-0.32-3.648-1.152-5.376-1.664-2.368-0.768-4.864-1.6-7.296-2.24a141.728 141.728 0 0 1-11.328-3.264 20 20 0 0 0-8.064-1.344c-0.64-2.624-2.752-1.088-4.224-1.408-1.92 0-3.712-0.96-5.504-1.28-5.824-1.024-11.776-1.216-17.664-2.56-4.672-1.024-9.728-0.448-14.592-1.152-2.88-0.384-5.76-0.128-8.704-0.192 0-1.152-0.576-1.408-1.6-1.408h-28.096c-1.024 0-1.6 0.32-1.6 1.408-7.168-0.384-14.208 1.216-21.376 1.152h-4.224c-1.024-0.064-1.472 0.384-1.536 1.344-4.096-0.384-7.936 1.408-12.032 1.152a1.312 1.312 0 0 0-0.704 0.192c-3.136 2.176-6.976 1.408-10.368 2.56-2.688 0.896-5.952 0.768-8.512 1.728-2.048 0.704-4.352 1.28-6.4 2.112a18.56 18.56 0 0 1-8 1.6c0.064 0.512 0.192 1.152-0.512 1.216-1.6 0.128-3.072 0.96-4.48 1.28-4.224 1.088-8.192 2.688-12.288 4.096-3.584 1.28-6.912 3.2-10.432 4.032-4.032 0.96-6.848 4.16-11.072 4.672a7.136 7.136 0 0 0-3.648 1.28 13.088 13.088 0 0 1-3.904 2.368 26.528 26.528 0 0 0-6.4 3.136c-2.944 1.92-6.144 3.2-8.96 5.12-1.088 0.768-2.88 0.448-3.392 1.28-2.048 3.584-6.272 3.648-9.152 5.888-3.072 2.368-6.72 4.16-9.792 6.464-2.56 1.92-5.248 3.712-7.68 5.76-3.2 2.752-6.656 5.248-10.048 7.68-1.792 1.28-2.88 3.648-4.736 4.224-2.944 1.024-4.48 3.456-6.4 5.248-1.92 1.92-4.096 3.904-6.016 5.952-2.944 3.008-6.08 5.824-9.152 8.768-2.304 2.176-4.288 4.928-6.848 6.592-3.84 2.56-6.656 5.952-9.856 8.96-3.2 3.008-6.4 6.144-9.472 9.28-3.584 3.648-7.552 6.912-10.944 10.688-2.944 3.328-6.336 6.208-9.472 9.28-3.2 3.136-6.208 6.464-9.6 9.472a155.552 155.552 0 0 0-9.472 9.472 208.32 208.32 0 0 1-7.552 7.488c-2.56 2.432-4.736 5.312-7.936 7.04-0.32 1.536-1.6 2.176-2.752 2.944-3.328 2.112-5.952 4.992-8.832 7.68-1.92 1.728-3.456 4.032-5.632 5.248-3.584 1.92-6.144 5.12-9.344 7.424-3.84 2.816-7.808 5.696-11.2 9.088-1.664 1.6-4.224 1.856-5.312 3.968-0.896 1.792-3.2 1.408-4.288 2.816-2.24 3.008-5.888 4.224-8.576 6.656-1.6 1.472-3.84 2.688-5.76 3.84-1.216 0.64-2.56 1.088-3.584 2.048-2.496 2.24-5.28 4.16-8.256 5.76-1.28 0.768-3.008 1.28-3.968 2.368-1.792 1.92-4.288 2.816-6.336 4.48a25.76 25.76 0 0 1-6.784 4.096c-3.2 1.216-5.632 3.456-8.576 4.928-3.968 1.92-7.68 4.288-11.584 6.208-1.024 0.512-2.752 0.832-3.328 2.24 0 0.896 0.384 1.152 1.152 1.6 1.728 1.024 3.648 1.28 5.376 1.984 2.816 1.28 5.504 2.88 8.32 4.032 2.688 1.088 4.928 2.944 8.128 3.2a8 8 0 0 1 3.904 1.92c1.92 1.664 4.352 2.304 6.4 3.072 1.792 0.64 3.52 1.792 5.568 2.176 1.28 0.256 3.008 0.192 4.032 0.96 1.792 1.408 3.84 2.176 5.76 3.328 1.28 0.768 3.008-0.256 3.776 0.896 1.088 1.6 3.072 1.856 4.288 2.304 3.648 1.28 7.04 2.752 10.624 4.224 3.072 1.28 6.208 2.176 9.216 3.84 2.496 1.344 5.824 1.408 8.704 2.624 1.088 0.512 1.664 1.536 2.88 1.664 2.784 0.192 5.44 0.96 7.872 2.368 0.768 0.512 1.6 1.408 2.56 1.6 2.816 0.576 5.568 1.28 8.32 2.432 2.56 1.024 5.248 2.176 7.936 2.56 1.472 0.192 1.792 1.664 3.2 1.664 2.496 0 4.48 1.6 6.848 2.112 3.2 0.768 6.336 1.92 9.472 2.88 0.704 0.192 1.92-0.128 2.24 0.256 1.92 2.56 5.12 1.28 7.68 2.56 2.752 1.408 6.4 2.048 9.6 3.136 2.88 1.024 5.76 2.112 8.832 2.24 0.512 0 0.96 0.128 1.408 0.448 2.048 1.28 4.416 1.984 6.784 2.56 1.12 0.224 2.24 0.416 3.392 0.576 2.048 0.32 3.712 1.728 5.696 1.856 2.944 0.128 5.44 1.92 8.512 2.048 1.152 0.064 3.072-0.128 4.032 0.832 1.984 1.984 4.8 1.856 7.04 2.432 4.864 1.28 10.048 0.96 15.04 2.624 2.88 1.024 6.144 0.64 9.344 1.408 5.12 1.152 10.688 0.768 16.128 1.088 10.048 0.64 20.16 0.384 30.144-0.768 2.56-0.32 4.928-0.448 7.424-1.088 3.552-0.928 7.2-1.504 10.88-1.792 3.136-0.256 6.016-1.6 9.216-1.28a1.184 1.184 0 0 0 0.64-0.192c2.752-1.728 5.952-1.728 8.832-2.688 2.048-0.64 4.48-0.576 6.208-1.6a17.76 17.76 0 0 1 5.824-2.24c3.2-0.512 5.44-3.2 8.704-2.944 0.128 0 0.256-0.192 0.384-0.256 2.176-1.664 4.864-2.56 7.296-3.392 2.624-0.896 5.216-1.984 7.744-3.2 3.328-1.664 6.528-3.84 9.792-5.76 0.96-0.576 2.368 0.256 3.072-1.28 0.512-1.28 1.728-1.92 3.2-2.24 1.664-0.448 3.584-1.088 4.288-3.008 0.32-0.832 0.96-0.896 1.6-0.832a2.432 2.432 0 0 0 2.176-1.216c2.048-3.072 5.568-4.48 8.384-6.528 2.944-2.048 5.248-4.8 8.32-6.656 3.648-2.112 6.272-5.504 9.216-8.448 2.496-2.56 4.864-5.184 7.488-7.488 2.048-1.792 3.008-4.224 5.056-6.016 1.408-1.28 3.648-2.56 4.224-4.48 0.896-3.008 3.328-4.224 5.376-6.08a11.68 11.68 0 0 1 3.136-4.032l0.768-1.216c1.088-0.64 0.512-2.24 1.664-2.944 2.048-1.344 2.816-3.84 3.712-5.76 1.408-2.944 3.136-5.824 4.8-8.576 1.792-3.008 2.88-6.336 5.12-9.152 1.664-2.176 2.752-5.056 3.968-7.616 2.176-4.48 4.416-8.896 6.784-13.248 1.408-2.56 2.752-5.248 3.968-7.936 1.216-2.816 2.816-5.44 4.096-8.128 1.28-2.816 3.072-5.376 4.096-8.128 1.28-3.392 3.2-6.272 4.672-9.536 0.448-1.152 0.32-2.56 1.152-3.392a16.416 16.416 0 0 0 3.584-6.272c1.28-3.392 4.16-6.016 4.48-9.792l0.256-0.128c1.28-0.96 1.728-2.56 2.432-3.904 1.152-2.112 1.664-4.608 3.072-6.528 2.176-3.072 3.456-6.528 5.12-9.792 1.088-2.048 1.92-4.352 3.072-6.208 1.92-3.008 3.2-6.4 4.992-9.408 1.28-2.112 2.336-4.384 3.2-6.72 0.576-1.536 1.664-3.072 2.624-4.48 1.728-2.688 2.944-5.76 5.184-8.128 0.96-1.024 0.896-2.432 2.048-3.584 1.92-1.92 2.944-4.48 4.48-6.72 1.152-1.664 1.92-3.712 3.264-4.992 2.56-2.432 4.48-5.44 6.208-8.192 1.728-2.752 3.968-5.248 5.952-7.616 3.264-3.968 6.784-7.872 10.368-11.712l9.728-10.368c1.92-1.984 1.408-2.432 0-3.84" fill="#133C9A" p-id="12659"></path></svg>