<?xml version="1.0" standalone="no"?><!DOCTYPE svg PUBLIC "-//W3C//DTD SVG 1.1//EN" "http://www.w3.org/Graphics/SVG/1.1/DTD/svg11.dtd"><svg t="1771604188967" class="icon" viewBox="0 0 1024 1024" version="1.1" xmlns="http://www.w3.org/2000/svg" p-id="7057" xmlns:xlink="http://www.w3.org/1999/xlink" width="256" height="256"><path d="M852.906069 1.022977H170.580394C76.977997 1.022977 0.25472 77.746254 0.25472 171.348651v681.814186c0 94.113886 76.723277 170.837163 170.325674 170.837163h681.814186c93.602398 0 170.325674-76.723277 170.325674-170.325674V171.348651C1023.231743 77.746254 946.508466 1.022977 852.906069 1.022977z m-32.735265 580.027972l1.534465 1.534466c3.58042 4.091908 3.58042 10.22977-0.511488 13.810189-4.091908 3.58042-10.22977 3.58042-13.81019 0-18.925075-20.45954-43.476523-33.758242-70.585414-38.873126-9.206793-1.022977-17.902098-5.114885-24.551449-11.764236l-0.511489-0.511489c-15.856144-15.856144-15.344655-41.430569 0.511489-57.286713 5.114885-5.114885 11.252747-8.695305 17.902098-10.741259 21.994006-6.137862 45.010989 6.649351 50.637363 28.643357 4.091908 28.643357 17.902098 55.240759 39.384615 75.188811zM479.007967 705.854146c-31.200799 0-62.913087-4.091908-93.090909-12.787213L322.492482 724.779221l-21.482517 10.741259-1.534466 1.022977h-0.511488c-3.068931 1.534466-6.137862 2.557443-9.206793 3.068931-12.275724 1.022977-23.528472-8.183816-24.551449-20.459541v-4.091908c0-1.022977 0-2.045954 0.511488-2.557442l1.022977-3.068932 8.695305-69.562437c-19.436563-17.390609-41.430569-41.942058-54.217782-61.378622-46.033966-67.516484-52.171828-154.46953-15.856144-227.612387 11.764236-24.03996 27.62038-45.522478 46.545455-64.447553 48.591409-49.102897 115.596404-80.303696 189.762237-88.487512 25.574426-2.557443 51.148851-2.557443 76.723277 0.511488 71.608392 7.160839 138.101898 38.873127 189.250749 88.999001 18.413586 18.925075 34.26973 40.919081 46.033966 64.447553 17.902098 35.804196 25.574426 76.211788 22.505495 116.107892l-2.045954-2.045954c-13.81019-13.298701-34.781219-15.856144-50.637363-6.137862 0-2.557443 0.511489-5.626374 0.511489-8.183816 0-27.108891-6.649351-53.706294-18.413587-77.746254-9.206793-18.925075-21.994006-36.315684-36.827172-51.66034-39.384615-40.407592-95.136863-66.493506-156.515485-73.142857-21.482517-2.557443-42.965035-2.557443-64.447552 0-61.89011 6.649351-117.642358 32.223776-157.026973 72.631369-14.833167 14.833167-27.62038 32.223776-37.338662 51.660339-28.643357 57.286713-24.03996 125.826174 12.787213 179.020979 14.321678 20.971029 32.223776 39.384615 52.683317 54.217783 7.672328 5.626374 10.741259 15.344655 8.183816 24.03996l-4.603397 15.856144-3.580419 14.321678-2.557443 8.695305-2.045954 8.183816c0 2.045954 1.534466 3.58042 3.068931 3.580419 0.511489 0 1.022977-0.511489 2.557443-1.022977l2.045954-1.534465 52.171828-30.689311 1.534465-1.022977c7.160839-3.58042 14.833167-4.603397 22.505495-2.557443 13.81019 4.091908 28.131868 6.649351 41.942058 8.695305l6.137862 1.022977c39.384615 4.603397 79.280719 0.511489 117.130869-11.764236-2.045954 18.925075 9.718282 36.827173 28.131868 42.965035-34.781219 13.81019-73.654346 20.45954-112.527472 20.459541z m116.107892-45.010989c-5.114885-5.114885-9.206793-11.764236-10.741259-18.925075-5.626374-21.994006 7.160839-43.988012 29.154845-49.614386 29.666334-3.58042 57.286713-17.902098 77.746254-39.896104l0.511489-0.511488c4.091908-3.58042 10.22977-3.068931 14.321678 1.022977 3.58042 4.091908 3.068931 10.22977-1.022977 13.81019-20.45954 18.413586-34.26973 42.965035-39.384616 70.073926-1.022977 9.206793-5.114885 17.902098-11.764235 24.551448-16.367632 15.344655-42.453546 15.344655-58.821179-0.511488z m157.026973 126.337662c-21.994006 6.137862-44.4995-6.649351-50.637363-28.643356-4.091908-29.154845-17.902098-55.752248-39.384615-75.7003-0.511489-0.511489-1.022977-0.511489-1.534466-1.022977-3.58042-4.091908-3.58042-9.718282 0-13.81019 4.091908-3.58042 10.22977-3.58042 14.321679 0 18.925075 20.45954 43.476523 34.26973 70.585414 38.873127 16.879121 1.534466 31.200799 13.81019 35.804196 30.177822v0.511489c5.626374 21.482517-7.672328 43.476523-29.154845 49.614385z m117.130869-115.596403c-29.154845 3.58042-56.263736 17.390609-76.211788 38.873126-0.511489 0.511489-0.511489 1.022977-1.022977 1.534466-4.091908 4.091908-10.22977 4.091908-14.321679 0-3.58042-4.091908-3.58042-10.22977 0.511489-13.81019 20.45954-18.413586 34.26973-42.965035 39.384615-70.073926 1.022977-9.206793 5.114885-17.902098 11.764236-24.551448 5.114885-5.114885 11.764236-8.695305 18.413587-10.741259 21.994006-6.137862 44.4995 7.160839 50.637362 29.154845v0.511488c5.626374 20.971029-7.672328 42.965035-29.154845 49.102898z" fill="#4381EB" p-id="7058"></path></svg>